<?xml version="1.0" encoding="UTF-8" standalone="no"?>
<svg
   xmlns:dc="http://purl.org/dc/elements/1.1/"
   xmlns:cc="http://creativecommons.org/ns#"
   xmlns:rdf="http://www.w3.org/1999/02/22-rdf-syntax-ns#"
   xmlns:svg="http://www.w3.org/2000/svg"
   xmlns="http://www.w3.org/2000/svg"
   xmlns:sodipodi="http://sodipodi.sourceforge.net/DTD/sodipodi-0.dtd"
   xmlns:inkscape="http://www.inkscape.org/namespaces/inkscape"
   width="348"
   height="100"
   version="1.1"
   id="svg22"
   sodipodi:docname="eia.svg"
   inkscape:version="0.92.3 (2405546, 2018-03-11)">
  <metadata
     id="metadata28">
    <rdf:RDF>
      <cc:Work
         rdf:about="">
        <dc:format>image/svg+xml</dc:format>
        <dc:type
           rdf:resource="http://purl.org/dc/dcmitype/StillImage" />
        <dc:title></dc:title>
      </cc:Work>
    </rdf:RDF>
  </metadata>
  <defs
     id="defs26" />
  <sodipodi:namedview
     pagecolor="#ffffff"
     bordercolor="#666666"
     borderopacity="1"
     objecttolerance="10"
     gridtolerance="10"
     guidetolerance="10"
     inkscape:pageopacity="0"
     inkscape:pageshadow="2"
     inkscape:window-width="1856"
     inkscape:window-height="1057"
     id="namedview24"
     showgrid="false"
     inkscape:zoom="4.2844828"
     inkscape:cx="170.49899"
     inkscape:cy="40.663984"
     inkscape:window-x="-8"
     inkscape:window-y="-8"
     inkscape:window-maximized="1"
     inkscape:current-layer="svg22" />
  <path
     d="m 343.395,65.539 v -9.92 c -4.522,7.275 -11.493,10.675 -19.03,10.675 -13,0 -23.646,-9.825 -23.646,-24.089 0,-14.265 10.646,-23.901 23.646,-23.901 7.537,0 15.168,3.496 19.03,10.769 V 18.87 h 4.616 v 46.669 z m -19.03,-42.795 c -10.551,0 -19.029,7.746 -19.029,19.461 0,11.714 8.478,19.555 19.029,19.555 25.908,0 25.908,-39.016 0,-39.016 z M 284.139,3.662 c 0,-4.913 7.442,-4.913 7.442,0 0,4.911 -7.442,4.911 -7.442,0 z m -52.57,40.715 c 0.942,10.959 9.326,17.288 18.935,17.288 6.124,0 13.283,-2.456 16.769,-7.085 l 3.297,2.646 c -4.521,5.951 -12.623,8.974 -20.066,8.974 -13.095,0 -23.645,-9.164 -23.645,-23.995 0,-13.981 10.55,-24.09 23.645,-24.09 13.095,0 24.777,8.03 22.987,26.262 z m 18.935,-22.011 c -9.609,0 -17.899,6.519 -18.935,17.95 h 37.777 c -0.094,-11.526 -7.631,-17.95 -18.842,-17.95 z m 39.57,43.173 h -4.617 V 18.682 h 4.617 z"
     id="path20"
     inkscape:connector-curvature="0"
     style="fill:#ffffff;fill-rule:evenodd"
     sodipodi:nodetypes="ccssscccccssssssscsccsssccsccsccccc" />
</svg>
