<svg xmlns="http://www.w3.org/2000/svg" width="348" height="100">
    <path fill="#FFF" fill-rule="evenodd" d="M343.395 65.539v-9.92c-4.522 7.275-11.493 10.675-19.03 10.675-13 0-23.646-9.825-23.646-24.089 0-14.265 10.646-23.901 23.646-23.901 7.537 0 15.168 3.496 19.03 10.769V18.87h4.616v46.669h-4.616zm-19.03-42.795c-10.551 0-19.029 7.746-19.029 19.461 0 11.714 8.478 19.555 19.029 19.555 25.908 0 25.908-39.016 0-39.016zM284.139 3.662c0-4.913 7.442-4.913 7.442 0 0 4.911-7.442 4.911-7.442 0zm-52.57 40.715c.942 10.959 9.326 17.288 18.935 17.288 6.124 0 13.283-2.456 16.769-7.085l3.297 2.646c-4.521 5.951-12.623 8.974-20.066 8.974-13.095 0-23.645-9.164-23.645-23.995 0-13.981 10.55-24.09 23.645-24.09 13.095 0 24.777 8.03 22.987 26.262h-41.922zm18.935-22.011c-9.609 0-17.899 6.519-18.935 17.95h37.777c-.094-11.526-7.631-17.95-18.842-17.95zM195.203 66.2c-13.095 0-23.646-9.069-23.646-23.901 0-14.831 10.551-24.278 23.646-24.278 13.094 0 23.646 9.447 23.646 24.278 0 14.832-10.552 23.901-23.646 23.901zm0-43.834c-10.552 0-19.125 7.841-19.125 19.933 0 12.093 8.573 19.366 19.125 19.366 10.551 0 19.123-7.273 19.123-19.366 0-12.092-8.572-19.933-19.123-19.933zM138.77 66.389c-7.913 0-15.262-3.874-19.218-11.619V85h-4.428V18.87h4.522v11.054c3.674-7.085 11.117-11.714 20.16-11.714 12.624.472 22.61 8.974 22.61 23.995 0 15.681-10.551 24.184-23.646 24.184zm0-43.739c-10.834 0-18.841 8.218-18.841 19.649 0 11.431 8.195 19.65 18.841 19.65 10.551 0 19.03-6.613 19.03-19.744 0-13.132-8.479-19.555-19.03-19.555zM96 3.662c0-4.913 7.442-4.913 7.442 0 0 4.911-7.442 4.911-7.442 0zM70.939 61.665a19.68 19.68 0 0 0 13.848-5.762l3.109 3.118c-4.71 4.723-10.834 6.99-16.957 6.99-13.095 0-23.928-9.069-23.928-23.806s10.457-23.807 23.928-23.807c6.123 0 12.247 2.362 16.957 6.991l-3.014 2.929c-3.768-3.779-8.95-5.574-13.943-5.574-10.551 0-19.407 6.897-19.407 19.461 0 12.565 8.856 19.46 19.407 19.46zM20.254 39.56c8.29 1.417 19.689 2.834 19.218 13.697-.282 10.297-10.928 13.037-19.124 13.037-8.196 0-16.298-3.117-20.348-9.352l3.391-3.023c3.863 5.574 10.834 7.936 17.052 7.936 5.652 0 14.225-1.512 14.507-8.88.189-6.708-7.536-8.031-15.167-9.258-9.044-1.512-17.994-3.213-18.088-12.565-.094-9.164 9.044-13.131 18.465-13.037 6.783 0 12.718 1.89 17.334 6.235l-2.826 3.023c-4.711-4.156-9.327-4.912-14.508-4.912-7.254-.095-14.226 2.645-14.037 8.597.189 6.234 8.29 7.463 14.131 8.502zm81.68 25.979h-4.616V18.682h4.616v46.857zm188.14 0h-4.617V18.682h4.617v46.857z"/>
</svg>
