<?xml version="1.0" encoding="UTF-8" standalone="no"?>
<svg
   xmlns:dc="http://purl.org/dc/elements/1.1/"
   xmlns:cc="http://creativecommons.org/ns#"
   xmlns:rdf="http://www.w3.org/1999/02/22-rdf-syntax-ns#"
   xmlns:svg="http://www.w3.org/2000/svg"
   xmlns="http://www.w3.org/2000/svg"
   xmlns:sodipodi="http://sodipodi.sourceforge.net/DTD/sodipodi-0.dtd"
   xmlns:inkscape="http://www.inkscape.org/namespaces/inkscape"
   width="348"
   height="100"
   version="1.1"
   id="svg22"
   sodipodi:docname="scip.svg"
   inkscape:version="0.92.3 (2405546, 2018-03-11)">
  <metadata
     id="metadata28">
    <rdf:RDF>
      <cc:Work
         rdf:about="">
        <dc:format>image/svg+xml</dc:format>
        <dc:type
           rdf:resource="http://purl.org/dc/dcmitype/StillImage" />
        <dc:title></dc:title>
      </cc:Work>
    </rdf:RDF>
  </metadata>
  <defs
     id="defs26" />
  <sodipodi:namedview
     pagecolor="#ffffff"
     bordercolor="#666666"
     borderopacity="1"
     objecttolerance="10"
     gridtolerance="10"
     guidetolerance="10"
     inkscape:pageopacity="0"
     inkscape:pageshadow="2"
     inkscape:window-width="1858"
     inkscape:window-height="1057"
     id="namedview24"
     showgrid="false"
     inkscape:zoom="4.2902299"
     inkscape:cx="174.21211"
     inkscape:cy="50"
     inkscape:window-x="1974"
     inkscape:window-y="1"
     inkscape:window-maximized="1"
     inkscape:current-layer="svg22" />
  <path
     d="m 138.77,66.389 c -7.913,0 -15.262,-3.874 -19.218,-11.619 V 85 h -4.428 V 18.87 h 4.522 v 11.054 c 3.674,-7.085 11.117,-11.714 20.16,-11.714 12.624,0.472 22.61,8.974 22.61,23.995 0,15.681 -10.551,24.184 -23.646,24.184 z m 0,-43.739 c -10.834,0 -18.841,8.218 -18.841,19.649 0,11.431 8.195,19.65 18.841,19.65 10.551,0 19.03,-6.613 19.03,-19.744 0,-13.132 -8.479,-19.555 -19.03,-19.555 z M 96,3.662 c 0,-4.913 7.442,-4.913 7.442,0 0,4.911 -7.442,4.911 -7.442,0 z M 70.939,61.665 c 5.195629,-0.01738 10.173579,-2.088651 13.848,-5.762 l 3.109,3.118 c -4.71,4.723 -10.834,6.99 -16.957,6.99 -13.095,0 -23.928,-9.069 -23.928,-23.806 0,-14.737 10.457,-23.807 23.928,-23.807 6.123,0 12.247,2.362 16.957,6.991 l -3.014,2.929 c -3.768,-3.779 -8.95,-5.574 -13.943,-5.574 -10.551,0 -19.407,6.897 -19.407,19.461 0,12.565 8.856,19.46 19.407,19.46 z M 20.254,39.56 c 8.29,1.417 19.689,2.834 19.218,13.697 C 39.19,63.554 28.544,66.294 20.348,66.294 12.152,66.294 4.05,63.177 0,56.942 l 3.391,-3.023 c 3.863,5.574 10.834,7.936 17.052,7.936 5.652,0 14.225,-1.512 14.507,-8.88 C 35.139,46.267 27.414,44.944 19.783,43.717 10.739,42.205 1.789,40.504 1.695,31.152 1.601,21.988 10.739,18.021 20.16,18.115 c 6.783,0 12.718,1.89 17.334,6.235 l -2.826,3.023 C 29.957,23.217 25.341,22.461 20.16,22.461 12.906,22.366 5.934,25.106 6.123,31.058 c 0.189,6.234 8.29,7.463 14.131,8.502 z m 81.68,25.979 H 97.318 V 18.682 h 4.616 z"
     id="path20"
     inkscape:connector-curvature="0"
     style="fill:#ffffff;fill-rule:evenodd"
     sodipodi:nodetypes="scccccccsssssssssscccsssccsscccsccscccccccccccccc" />
</svg>
